PathFileType	4	(X/Y/Z)	C:\Users\WrightLab\Desktop\Jo\P5V32.trc
DataRate	CameraRate	NumFrames	NumMarkers	Units	OrigDataRate	OrigDataStartFrame	OrigNumFrames
100.00	100.00	      50	19	mm	100.00	963	      1100
Frame#	Time	Headset_Front			Headset_Back			Headset_Left			Headset_Right			Left_Shoulder			Right_Shoulder			Sternum			C7			Left Elbow			Right Elbow			Left Wrist			Right Wrist			Left ASIS			Right ASIS			S2			Left Knee			Right Knee			Left Ankle			Right Ankle			
		X1	Y1	Z1	X2	Y2	Z2	X3	Y3	Z3	X4	Y4	Z4	X5	Y5	Z5	X6	Y6	Z6	X7	Y7	Z7	X8	Y8	Z8	X9	Y9	Z9	X10	Y10	Z10	X11	Y11	Z11	X12	Y12	Z12	X13	Y13	Z13	X14	Y14	Z14	X15	Y15	Z15	X16	Y16	Z16	X17	Y17	Z17	X18	Y18	Z18	X19	Y19	Z19	

963	9.620																-672.50116	914.64703	-899.92114										-673.72491	1151.93628	-661.09088				-562.07233	1037.77173	-827.88293													-682.96313	470.59525	-882.69159				-852.05695	78.64912	-814.34131	
964	9.630																-667.97302	915.34924	-905.26447										-671.00806	1153.14417	-667.26819				-557.75409	1040.48657	-833.95154													-683.36798	470.39792	-883.77655				-852.12653	79.48399	-815.11847	
965	9.640																-663.00958	915.83069	-909.28265										-667.49268	1153.75549	-670.67987				-553.87830	1041.67615	-838.21307													-683.82916	470.42438	-885.45215				-851.60889	79.96717	-815.82227	
966	9.650																-658.53986	916.67352	-913.09454										-664.69250	1155.16858	-675.69189				-549.18506	1043.29663	-842.28101													-684.11469	470.49960	-887.47546				-851.25409	80.82383	-816.37262	
967	9.660																-653.60706	917.13538	-917.94891										-662.25281	1156.24011	-680.29877				-545.08447	1045.01147	-847.34528													-684.49811	470.17807	-889.30231				-850.41254	81.57185	-816.66406	
968	9.670																-649.51868	917.55994	-921.38556										-659.07178	1156.59399	-685.69391				-540.90784	1045.86572	-851.73663													-684.70746	469.69577	-890.21381				-850.87097	82.04965	-816.89893	
969	9.680																-644.96075	918.50098	-925.83618										-656.13800	1157.59265	-691.69653				-536.39594	1047.50513	-854.86371													-685.09564	469.40961	-891.15485				-850.32129	82.74889	-817.28638	
970	9.690																-641.36548	918.35541	-928.99243										-653.53528	1157.61487	-695.87872				-532.31738	1048.30981	-859.70911													-685.34052	470.20297	-892.64368				-849.68164	83.60883	-817.71893	
971	9.700																-637.33380	918.44342	-932.75818										-650.64746	1158.43591	-700.32275				-528.09192	1048.89697	-863.98724													-685.47986	470.26083	-893.33826				-849.99725	84.44463	-818.03455	
972	9.710																-633.13452	918.73663	-936.00684										-651.91425	1155.94019	-709.36865				-524.21747	1049.99731	-868.85663													-685.08191	470.37820	-893.73029				-848.80029	86.03559	-818.21521	
973	9.720																-628.82007	918.27808	-940.18347										-648.97595	1155.82336	-713.51636				-520.36261	1050.24487	-871.98810													-683.83734	470.60291	-895.54742				-849.28284	87.34971	-818.63702	
974	9.730																-625.86530	918.93445	-942.62054										-646.82721	1157.05127	-717.61530				-515.59796	1051.05664	-874.64111													-681.58478	471.80371	-895.72968				-849.29230	87.84440	-818.76642	
975	9.740																-621.70734	918.87250	-945.98096										-644.37799	1156.75964	-721.88617				-512.02405	1051.11243	-878.54242													-678.43451	472.49338	-897.01593				-848.16254	88.88194	-819.13776	
976	9.750																-617.94342	917.76630	-948.56293										-641.39752	1156.99451	-726.70160				-507.85596	1051.15857	-882.03400													-680.67993	469.92029	-900.59900				-848.13910	89.29607	-821.64636	
977	9.760																-614.58569	917.98126	-952.25323										-640.06897	1156.04358	-733.33423				-503.85980	1051.69775	-885.26385													-677.81482	471.12161	-902.46466				-847.66864	89.63306	-821.63892	
978	9.770																-610.20782	916.86078	-953.61621										-637.56677	1155.54797	-737.65845				-500.18393	1051.61169	-889.07770													-675.44086	470.89374	-902.92352				-847.64661	89.67549	-821.64404	
979	9.780																-606.26239	916.57477	-957.30707										-637.07806	1155.16870	-741.57062				-495.74734	1051.21069	-892.11298													-673.94977	470.06522	-905.64349				-847.91656	90.42626	-822.85376	
980	9.790																-601.71863	915.93744	-960.73511										-634.38379	1153.60425	-746.00610				-492.34717	1050.96350	-895.30133													-671.30701	469.27377	-907.62946				-847.15765	91.66580	-823.42828	
981	9.800																-600.53760	913.96759	-965.52795										-633.54004	1153.23315	-752.56201				-488.56061	1050.36560	-897.64026													-668.71515	468.06131	-908.94238				-848.01306	91.73019	-824.31830	
982	9.810																-596.43262	913.64227	-969.21118										-631.51331	1152.09924	-756.69562				-483.87399	1049.54089	-900.98859													-665.41199	468.07486	-910.58826				-848.82574	91.97652	-824.36627	
983	9.820																-592.41492	911.73749	-973.06378										-630.19824	1151.43677	-761.00214				-480.23608	1048.29187	-902.88666													-662.54694	465.88254	-912.54327				-848.67065	92.65427	-824.23535	
984	9.830																-587.85040	910.20258	-974.32825										-628.06085	1149.41516	-766.47156				-475.96652	1047.68774	-905.79425													-660.41302	464.96167	-914.57190				-849.30115	92.98619	-824.85309	
985	9.840																-583.54791	909.70264	-977.68726										-627.02747	1148.56763	-772.03204				-472.44205	1047.18018	-908.51086													-655.04382	464.05231	-915.09747				-848.99084	94.08894	-825.31543	
986	9.850																-579.41907	908.03497	-982.44543										-625.11469	1147.99585	-776.29272				-468.80783	1046.61975	-910.21967													-653.34485	461.65884	-919.03870				-848.37567	94.82177	-825.71246	
987	9.860																-574.86719	905.60028	-985.61841										-624.36835	1145.85022	-782.01971				-464.71655	1045.29163	-912.81042													-650.08447	459.71329	-922.36517				-847.42798	95.48389	-827.06152	
988	9.870																-570.40094	904.41943	-989.99445										-623.22217	1145.33423	-785.69666				-461.54391	1044.32227	-915.97559													-645.45746	458.14493	-923.48944				-847.43854	96.10453	-828.18976	
989	9.880																-565.08063	903.76190	-994.33307										-622.10016	1149.67859	-780.38940				-457.84344	1043.36011	-916.06885													-641.96051	457.27408	-928.28784				-846.00616	98.82004	-829.98212	
990	9.890																-560.46783	900.82678	-1000.07410										-617.85431	1146.03674	-792.61108				-454.29654	1042.53345	-919.72217													-637.95984	455.72211	-931.18451				-846.14581	99.26987	-830.61499	
991	9.900																-554.59528	900.26178	-1004.82794										-620.64783	1141.84839	-801.31006				-451.73383	1041.88416	-922.34375													-635.03284	452.78543	-935.35858				-844.82312	101.10162	-831.27203	
992	9.910																-548.72528	899.15771	-1008.93030										-620.17926	1140.46509	-808.21875				-448.34613	1040.84216	-923.48053													-630.13007	452.28073	-938.95697				-843.75000	103.27305	-833.22192	
993	9.920																-542.89380	896.63116	-1014.89978										-619.34711	1140.02832	-811.83179				-445.32385	1039.97058	-926.00867													-626.41235	449.99591	-944.78711				-842.61346	105.20923	-834.80505	
994	9.930																-537.89453	895.03699	-1020.95374										-619.45422	1138.81836	-818.20789				-442.57764	1039.10254	-928.09033													-621.50079	449.04581	-949.22809				-841.34332	107.24710	-835.59802	
995	9.940																-531.27563	893.72003	-1026.95081										-618.68835	1137.16052	-823.95679				-439.90308	1037.72510	-928.93781													-617.52112	446.44302	-956.98132				-838.32172	110.30044	-836.88977	
996	9.950																-526.82050	891.77234	-1035.18359										-618.10760	1137.28723	-828.97839				-437.60132	1037.77686	-930.11261													-612.78760	444.70111	-961.20959				-834.69800	114.46249	-840.07928	
997	9.960																-520.86920	890.43555	-1041.18579										-617.67474	1137.44812	-834.20300				-435.16031	1036.95764	-932.53894													-607.95697	442.40125	-968.35950				-832.04504	118.20539	-842.40118	
998	9.970																-517.75439	890.38141	-1048.97852										-618.25726	1137.49988	-841.18396				-432.74725	1036.27478	-933.56122													-601.92432	441.18506	-974.39056				-828.40289	122.79280	-846.00415	
999	9.980																-511.49127	892.00403	-1054.80713										-619.38947	1138.33777	-849.55457				-432.38055	1036.23267	-938.07678													-596.22003	439.82968	-981.76007				-823.02521	128.33287	-850.69348	
1000	9.990																-507.01770	893.80914	-1060.51538										-618.91882	1139.67712	-855.41376				-430.11774	1036.08948	-938.08807													-591.21887	439.88828	-991.23383				-817.48572	134.63258	-855.38751	
1001	10.000																-503.82071	894.96185	-1067.18542										-620.20392	1141.91174	-866.89807				-428.96814	1036.24280	-941.66400													-583.09387	441.52209	-999.10034				-810.89581	140.55434	-861.14490	
1002	10.010																-500.15823	895.33936	-1074.34094										-618.15991	1143.74341	-866.02667				-428.58240	1037.99243	-942.68500													-575.98260	443.91873	-1006.83582				-804.67352	146.35492	-866.42908	
1003	10.020																-496.63007	898.45325	-1078.36389										-619.17273	1145.86145	-872.64081				-428.17868	1039.73254	-945.30597													-569.86737	444.26093	-1017.31494				-799.23950	152.40706	-874.14288	
1004	10.030																-493.29352	900.01172	-1083.67590										-620.96771	1146.33264	-878.96936				-427.09674	1040.55310	-947.22638													-559.98193	446.58643	-1025.27625				-793.42499	161.80595	-880.41534	
1005	10.040																-491.45050	901.08887	-1087.11072										-621.58539	1147.75720	-884.75269				-425.92593	1042.09900	-947.44006													-553.61517	447.70547	-1036.06482				-787.58661	169.28456	-885.46942	
1006	10.050																-489.00061	901.88409	-1091.01978										-624.18091	1149.66626	-890.20917				-425.36780	1042.65808	-951.32837													-544.32526	447.86761	-1042.77454				-782.10529	177.01563	-891.52301	
1007	10.060																-487.85983	904.99268	-1093.87134										-623.92041	1150.63623	-897.30743				-424.36578	1044.31543	-951.58655													-534.87701	450.32010	-1050.58826				-779.38391	182.99429	-902.57941	
1008	10.070																-485.87280	905.17444	-1098.87671										-624.41681	1151.94055	-902.88037				-424.62570	1045.94116	-953.40631													-523.89160	452.89264	-1053.00488				-773.28540	189.40813	-909.05737	
1009	10.080																-483.42419	906.51099	-1098.06189										-624.66693	1153.75122	-908.37842				-424.00040	1046.82288	-954.62054													-512.94012	454.77652	-1057.30176				-768.98822	195.60252	-919.33154	
1010	10.090																-481.99069	908.11975	-1100.43823										-624.49768	1155.82837	-913.39417				-424.36496	1048.69861	-957.00153													-501.80688	456.07230	-1061.21326				-764.64862	200.55942	-930.24658	
1011	10.100																-479.94724	910.31378	-1102.77905										-624.77637	1157.72864	-919.62482				-424.10983	1050.42627	-958.97974													-490.16830	457.27155	-1064.85217				-757.36786	203.17383	-942.32758	
1012	10.110																-478.27261	912.04974	-1103.30505										-625.36267	1159.13318	-924.66602				-424.72318	1051.85315	-961.53033													-480.59357	457.67740	-1070.03772				-751.04401	205.53532	-953.32605	
